<svg width="143" height="38" viewBox="0 0 143 38" fill="none" xmlns="http://www.w3.org/2000/svg">
<g clip-path="url(#clip0_1_1030)">
<path fill-rule="evenodd" clip-rule="evenodd" d="M9.65153 9.56914C9.65153 8.30436 10.154 7.09139 11.0483 6.19706C11.9426 5.30272 13.1556 4.80029 14.4204 4.80029C15.6852 4.80029 16.8981 5.30272 17.7925 6.19706C18.6868 7.09139 19.1892 8.30436 19.1892 9.56914C19.1892 10.8339 18.6868 12.0469 17.7925 12.9412C16.8981 13.8356 15.6852 14.338 14.4204 14.338C13.1556 14.338 11.9426 13.8356 11.0483 12.9412C10.154 12.0469 9.65153 10.8339 9.65153 9.56914ZM5.03924 17.3806C6.01 16.459 7.29745 15.9452 8.63596 15.9452C9.97447 15.9452 11.2619 16.459 12.2327 17.3806L12.2533 17.4012L14.4204 19.5683L16.5895 17.4012L16.6101 17.3806C17.5807 16.4602 18.8673 15.9472 20.2048 15.9472C21.5423 15.9472 22.8289 16.4602 23.7994 17.3806C24.2815 17.8378 24.6656 18.3883 24.9282 18.9986C25.1908 19.6089 25.3266 20.2662 25.3271 20.9306C25.3277 21.5951 25.1931 22.2526 24.9316 22.8634C24.67 23.4742 24.2869 24.0253 23.8056 24.4834L15.1372 32.9087C14.945 33.0955 14.6875 33.2001 14.4193 33.2001C14.1512 33.2001 13.8937 33.0955 13.7014 32.9087L5.03512 24.4834C4.55403 24.0255 4.17106 23.4746 3.90951 22.8641C3.64796 22.2536 3.51329 21.5963 3.51367 20.9321C3.51406 20.268 3.6495 19.6108 3.91176 19.0006C4.17401 18.3904 4.55762 17.8379 5.03924 17.3806Z" fill="#3B9AB8"/>
</g>
<path d="M37.0534 31V7.94516H40.5319V17.9641H52.0255V7.94516H55.5153V31H52.0255V20.9473H40.5319V31H37.0534ZM67.7632 31.349C66.0596 31.349 64.5924 30.985 63.3616 30.257C62.1383 29.5215 61.1927 28.4896 60.5247 27.1613C59.8643 25.8254 59.5341 24.2607 59.5341 22.467C59.5341 20.6959 59.8643 19.1349 60.5247 17.784C61.1927 16.4331 62.1233 15.3787 63.3165 14.6207C64.5173 13.8627 65.9207 13.4837 67.5267 13.4837C68.5024 13.4837 69.448 13.6451 70.3636 13.9678C71.2792 14.2905 72.1009 14.7971 72.8289 15.4875C73.5569 16.178 74.131 17.0748 74.5513 18.178C74.9715 19.2737 75.1817 20.6058 75.1817 22.1743V23.3676H61.4366V20.846H71.8833C71.8833 19.9604 71.7032 19.1761 71.343 18.4932C70.9827 17.8028 70.4761 17.2587 69.8232 16.8609C69.1778 16.4631 68.4198 16.2643 67.5493 16.2643C66.6037 16.2643 65.7781 16.4969 65.0727 16.9622C64.3747 17.42 63.8344 18.0204 63.4516 18.7634C63.0764 19.4988 62.8888 20.2981 62.8888 21.1612V23.1312C62.8888 24.2869 63.0914 25.2701 63.4967 26.0806C63.9094 26.8911 64.4835 27.5103 65.219 27.938C65.9545 28.3583 66.8138 28.5684 67.7969 28.5684C68.4348 28.5684 69.0165 28.4784 69.5418 28.2983C70.0671 28.1106 70.5212 27.833 70.9039 27.4652C71.2867 27.0975 71.5794 26.6434 71.782 26.1031L74.9678 26.6772C74.7126 27.6153 74.2548 28.4371 73.5944 29.1426C72.9415 29.8405 72.1197 30.3846 71.1291 30.7749C70.1459 31.1576 69.024 31.349 67.7632 31.349ZM83.9483 31.3827C82.8526 31.3827 81.8619 31.1801 80.9763 30.7749C80.0908 30.3621 79.3891 29.7655 78.8712 28.985C78.3609 28.2045 78.1057 27.2476 78.1057 26.1144C78.1057 25.1387 78.2934 24.3357 78.6686 23.7053C79.0439 23.0749 79.5504 22.5758 80.1883 22.2081C80.8263 21.8404 81.5392 21.5627 82.3272 21.3751C83.1152 21.1874 83.9182 21.0448 84.7363 20.9473C85.7719 20.8272 86.6125 20.7296 87.2579 20.6546C87.9033 20.572 88.3724 20.4407 88.665 20.2606C88.9577 20.0805 89.1041 19.7878 89.1041 19.3825V19.3037C89.1041 18.3206 88.8264 17.5588 88.271 17.0185C87.7232 16.4782 86.9052 16.208 85.817 16.208C84.6837 16.208 83.7907 16.4594 83.1377 16.9622C82.4923 17.4575 82.0458 18.0091 81.7981 18.617L78.6348 17.8966C79.0101 16.8459 79.5579 15.9978 80.2784 15.3524C81.0064 14.6995 81.8432 14.2267 82.7888 13.934C83.7344 13.6338 84.7288 13.4837 85.7719 13.4837C86.4624 13.4837 87.1941 13.5663 87.9671 13.7314C88.7476 13.889 89.4756 14.1817 90.151 14.6094C90.8339 15.0372 91.3931 15.6489 91.8283 16.4444C92.2636 17.2324 92.4813 18.2568 92.4813 19.5176V31H89.1941V28.636H89.0591C88.8414 29.0713 88.515 29.499 88.0797 29.9193C87.6444 30.3396 87.0853 30.6885 86.4023 30.9662C85.7194 31.2439 84.9014 31.3827 83.9483 31.3827ZM84.68 28.681C85.6106 28.681 86.4061 28.4971 87.0665 28.1294C87.7344 27.7617 88.241 27.2814 88.5862 26.6885C88.939 26.0881 89.1153 25.4464 89.1153 24.7635V22.5345C88.9953 22.6546 88.7626 22.7672 88.4174 22.8723C88.0797 22.9698 87.6932 23.0561 87.2579 23.1312C86.8226 23.1987 86.3986 23.2625 85.9858 23.3226C85.5731 23.3751 85.2278 23.4201 84.9502 23.4576C84.2972 23.5402 83.7006 23.679 83.1603 23.8742C82.6274 24.0693 82.1996 24.3507 81.8769 24.7185C81.5617 25.0787 81.4041 25.559 81.4041 26.1594C81.4041 26.9924 81.7118 27.6228 82.3272 28.0506C82.9426 28.4709 83.7269 28.681 84.68 28.681ZM100.33 7.94516V31H96.9645V7.94516H100.33ZM112.93 13.7089V16.4106H103.485V13.7089H112.93ZM106.018 9.5662H109.384V25.923C109.384 26.5759 109.482 27.0675 109.677 27.3977C109.872 27.7204 110.123 27.9418 110.431 28.0619C110.746 28.1744 111.088 28.2307 111.455 28.2307C111.726 28.2307 111.962 28.212 112.165 28.1744C112.367 28.1369 112.525 28.1069 112.637 28.0844L113.245 30.8649C113.05 30.94 112.772 31.015 112.412 31.0901C112.052 31.1726 111.602 31.2176 111.061 31.2251C110.176 31.2402 109.35 31.0826 108.585 30.7523C107.819 30.4221 107.2 29.9118 106.727 29.2214C106.254 28.5309 106.018 27.6641 106.018 26.6209V9.5662ZM120.391 20.7334V31H117.025V7.94516H120.346V16.5232H120.56C120.965 15.5926 121.584 14.8534 122.417 14.3055C123.25 13.7576 124.338 13.4837 125.682 13.4837C126.867 13.4837 127.903 13.7276 128.789 14.2154C129.682 14.7033 130.372 15.4312 130.86 16.3993C131.355 17.36 131.603 18.5607 131.603 20.0017V31H128.237V20.4069C128.237 19.1386 127.911 18.1555 127.258 17.4575C126.605 16.7521 125.697 16.3993 124.533 16.3993C123.738 16.3993 123.025 16.5682 122.395 16.9059C121.772 17.2436 121.28 17.739 120.92 18.3919C120.567 19.0373 120.391 19.8178 120.391 20.7334ZM136.095 31V13.7089H139.461V31H136.095ZM137.794 11.0409C137.209 11.0409 136.706 10.8458 136.286 10.4555C135.873 10.0578 135.667 9.58496 135.667 9.03711C135.667 8.48175 135.873 8.00895 136.286 7.6187C136.706 7.22094 137.209 7.02206 137.794 7.02206C138.38 7.02206 138.879 7.22094 139.292 7.6187C139.712 8.00895 139.922 8.48175 139.922 9.03711C139.922 9.58496 139.712 10.0578 139.292 10.4555C138.879 10.8458 138.38 11.0409 137.794 11.0409Z" fill="#3B9AB8"/>
<defs>
<clipPath id="clip0_1_1030">
<rect width="28.8397" height="28.8397" fill="white" transform="translate(0 4.58008)"/>
</clipPath>
</defs>
</svg>
